<svg width="56" height="56" viewBox="0 0 56 56" fill="none" xmlns="http://www.w3.org/2000/svg">
  <g transform="translate(12.5, 12.5)">
    <path d="M28.21 0H1.88C.84 0 0 .84 0 1.88v26.33c0 1.04.84 1.88 1.88 1.88h26.33c1.04 0 1.88-.84 1.88-1.88V1.88C30.09.84 29.25 0 28.21 0z" fill="#FECF40"/>
  </g>
  <g transform="translate(16.7, 18.4)">
    <path d="M17.47 2.77h-3.07l1.59 2.77 1.48-2.77zM21.73 18.39L10.85 0 0 18.35h5.81c.78 0 1.54-.2 2.21-.58.73-.41 1.28-1 1.71-1.71.5-.84.99-1.68 1.48-2.53l1.27-2.15-1.63-2.78-.72 1.18c-.83 1.4-1.61 2.83-2.46 3.81-.43.69-.99 1.35-1.82 1.52a3.3 3.3 0 01-.38.04c-.17.01-.34 0-.51 0l5.89-10.18 7.56 13.01h3.33z" fill="black"/>
  </g>
</svg>
