<svg preserveAspectRatio="none" overflow="visible" style="display: block;" width="15" height="15" viewBox="0 0 15 15" fill="none" xmlns="http://www.w3.org/2000/svg">
<g id="chat type">
<path id="Primary" d="M12.4277 7.10318H8.30267C7.88783 7.10318 7.55267 6.76803 7.55267 6.35318V2.22818C7.55267 1.81334 7.89017 1.47349 8.30033 1.5274C10.8081 1.86021 12.7956 3.84771 13.1285 6.35553C13.1824 6.76568 12.8425 7.10318 12.4277 7.10318ZM5.63549 2.35006C6.0597 2.26099 6.42767 2.60787 6.42767 3.04146V7.66568C6.42767 7.79693 6.47455 7.92349 6.55658 8.02428L9.65267 11.7602C9.92689 12.0907 9.8683 12.5899 9.49095 12.7938C8.69174 13.2297 7.77533 13.4782 6.80267 13.4782C3.6972 13.4782 1.17767 10.9587 1.17767 7.85318C1.17767 5.14615 3.08783 2.88678 5.63549 2.35006ZM11.6167 8.22818H13.1167C13.5503 8.22818 13.8972 8.59615 13.8081 9.02037C13.5691 10.1547 12.9878 11.1626 12.1769 11.9313C11.8886 12.2055 11.4363 12.1469 11.1831 11.8399L9.20502 9.45631C8.79955 8.96646 9.14877 8.22818 9.78158 8.22818H11.6144H11.6167Z" fill="#1B84FF"/>
</g>
</svg>
